<?xml version="1.0" encoding="UTF-8"?>
<!DOCTYPE svg PUBLIC "-//W3C//DTD SVG 1.1//EN" "http://www.w3.org/Graphics/SVG/1.1/DTD/svg11.dtd">
<!-- Creator: CorelDRAW -->
<svg xmlns="http://www.w3.org/2000/svg" xml:space="preserve" width="6mm" height="5.9mm" version="1.1" style="shape-rendering:geometricPrecision; text-rendering:geometricPrecision; image-rendering:optimizeQuality; fill-rule:evenodd; clip-rule:evenodd"
viewBox="0 0 11 10.82"
 xmlns:xlink="http://www.w3.org/1999/xlink"
 xmlns:xodm="http://www.corel.com/coreldraw/odm/2003">
 <defs>
  <style type="text/css">
   <![CDATA[
    .fil0 {fill:#959DA5}
   ]]>
  </style>
 </defs>
 <g id="Layer_x0020_1">
  <metadata id="CorelCorpID_0Corel-Layer"/>
  <path id="github-mark.svg" class="fil0" d="M5.51 0c-3.04,0 -5.51,2.48 -5.51,5.55 0,2.45 1.58,4.53 3.76,5.26 0.27,0.06 0.37,-0.12 0.37,-0.27 0,-0.13 -0.01,-0.57 -0.01,-1.03 -1.53,0.33 -1.85,-0.66 -1.85,-0.66 -0.25,-0.64 -0.61,-0.81 -0.61,-0.81 -0.5,-0.34 0.04,-0.34 0.04,-0.34 0.56,0.04 0.85,0.57 0.85,0.57 0.49,0.84 1.28,0.61 1.6,0.46 0.05,-0.36 0.19,-0.61 0.35,-0.74 -1.22,-0.13 -2.51,-0.61 -2.51,-2.74 0,-0.61 0.22,-1.1 0.57,-1.49 -0.05,-0.14 -0.25,-0.71 0.05,-1.47 0,0 0.46,-0.15 1.51,0.57 0.45,-0.12 0.91,-0.18 1.38,-0.18 0.46,0 0.94,0.06 1.38,0.18 1.05,-0.72 1.51,-0.57 1.51,-0.57 0.3,0.76 0.11,1.33 0.05,1.47 0.36,0.39 0.57,0.88 0.57,1.49 0,2.13 -1.28,2.6 -2.52,2.74 0.2,0.17 0.37,0.5 0.37,1.03 0,0.74 -0.01,1.34 -0.01,1.52 0,0.15 0.1,0.32 0.37,0.27 2.19,-0.73 3.76,-2.81 3.76,-5.26 0.01,-3.07 -2.46,-5.55 -5.5,-5.55z"/>
 </g>
</svg>
