<?xml version="1.0" encoding="UTF-8"?>
<!DOCTYPE svg PUBLIC "-//W3C//DTD SVG 1.1//EN" "http://www.w3.org/Graphics/SVG/1.1/DTD/svg11.dtd">
<!-- Creator: CorelDRAW -->
<svg xmlns="http://www.w3.org/2000/svg" xml:space="preserve" width="6mm" height="6mm" version="1.1" style="shape-rendering:geometricPrecision; text-rendering:geometricPrecision; image-rendering:optimizeQuality; fill-rule:evenodd; clip-rule:evenodd"
viewBox="0 0 65.08 65.08"
 xmlns:xlink="http://www.w3.org/1999/xlink"
 xmlns:xodm="http://www.corel.com/coreldraw/odm/2003">
 <defs>
  <style type="text/css">
   <![CDATA[
    .fil0 {fill:#959DA5}
   ]]>
  </style>
 </defs>
 <g id="Layer_x0020_1">
  <metadata id="CorelCorpID_0Corel-Layer"/>
  <path class="fil0" d="M32.54 0c17.97,0 32.54,14.57 32.54,32.54 0,17.97 -14.57,32.54 -32.54,32.54 -17.97,0 -32.54,-14.57 -32.54,-32.54 0,-17.97 14.57,-32.54 32.54,-32.54zm6.65 50.54l-0 -8.49c0,-1 -0.15,-1.82 0.46,-2.42 0.6,-0.59 1.35,-0.48 2.35,-0.48l8.57 0c-0.16,0.35 -0.92,1.31 -1.19,1.64 -1.6,2.01 -2.23,2.71 -4.03,4.53 -1.94,1.96 -2.99,2.89 -5.28,4.6 -0.29,0.21 -0.56,0.46 -0.87,0.62zm13.2 -17.42c-0.15,0.57 -0.65,1.12 -1.08,1.36 -0.62,0.34 -1.47,0.27 -2.24,0.27 -1.67,0 -3.35,0 -5.02,0 -3.86,0 -5.83,-0.27 -7.87,2.1 -1.9,2.21 -1.41,5.18 -1.41,8.53 0,1.45 0.13,3.58 -0.02,4.94 -0.2,1.87 -1.43,2.13 -2.88,2.12 -2.04,-0 -8.25,0.1 -9.83,-0.12 -5.31,-0.74 -9.17,-5.21 -9.41,-10.49 -0.15,-3.21 -0.02,-6.72 -0.02,-9.96 0,-1.98 -0.11,-8.31 0.13,-9.82 0.81,-5.23 5.12,-9.18 10.5,-9.44 3.2,-0.15 6.73,-0.02 9.96,-0.02 2.05,0 8.27,-0.11 9.86,0.14 5.25,0.81 9.15,5.24 9.38,10.52 0.05,1.14 0.1,9.29 -0.06,9.88zm4.47 2.36c0.08,-1.96 0.02,-4.07 0.02,-6.05 0,-2 0.04,-4.05 -0.01,-6.05 -0.16,-6.49 -4.16,-12.01 -10.07,-14.25 -3.37,-1.28 -7.41,-0.95 -11.23,-0.95 -4.04,0 -8.15,-0.08 -12.18,0.01 -6.45,0.13 -12.04,4.22 -14.24,10.1 -1.26,3.37 -0.94,7.36 -0.94,11.22 0,4.04 -0.08,8.15 0.01,12.18 0.14,6.57 4.1,11.91 10.09,14.23 3.39,1.31 7.36,0.98 11.21,0.98 4.04,0 7.65,0.5 10.59,-1.6 0.59,-0.42 1.22,-0.85 1.83,-1.27 1.22,-0.85 4.69,-3.66 5.8,-4.83 0.26,-0.28 0.55,-0.45 0.82,-0.73l4.23 -4.84c1.89,-2.45 3.93,-4.89 4.07,-8.14z"/>
 </g>
</svg>
